<svg xmlns="http://www.w3.org/2000/svg" xmlns:xlink="http://www.w3.org/1999/xlink" viewBox="0 0 573.89 138.32"><defs><clipPath id="clip-path"><path d="M468,82.81H523a8.75,8.75,0,0,0,8.75-8.75V46.36A8.75,8.75,0,0,0,523,37.61H48.55a8.75,8.75,0,0,0-8.75,8.75V101a8.75,8.75,0,0,0,8.75,8.75H432a8.73,8.73,0,0,0,5.93-2.32l24.2-22.32A8.75,8.75,0,0,1,468,82.81Z" style="fill:#6c9e96"/></clipPath></defs><title>cyan button</title><g style="isolation:isolate"><g id="Layer_9" data-name="Layer 9"><image width="589" height="169" transform="translate(-8.51 -10.16)" xlink:href="cyan%20button1.png" style="opacity:0.2;mix-blend-mode:multiply"/><path d="M468,82.81H523a8.75,8.75,0,0,0,8.75-8.75V46.36A8.75,8.75,0,0,0,523,37.61H48.55a8.75,8.75,0,0,0-8.75,8.75V101a8.75,8.75,0,0,0,8.75,8.75H432a8.73,8.73,0,0,0,5.93-2.32l24.2-22.32A8.75,8.75,0,0,1,468,82.81Z" style="fill:#6c9e96"/><g style="clip-path:url(#clip-path)"><polygon points="48.1 101.48 48.1 45.9 523.4 45.9 523.4 74.52 461.37 74.52 432.15 101.48 48.1 101.48" style="fill:#5b8c83"/><polygon points="39.8 109.77 48.1 101.48 432.16 101.48 435.48 109.77 39.8 109.77" style="fill:#6c9e96;opacity:0.77;mix-blend-mode:multiply"/><polygon points="39.8 37.61 48.1 45.9 48.1 101.48 39.8 109.77 39.8 37.61" style="fill:#6c9e96;opacity:0.4;mix-blend-mode:multiply"/><polygon points="523.4 74.52 531.7 82.81 464.61 82.81 461.37 74.52 523.4 74.52" style="fill:#6c9e96;opacity:0.77;mix-blend-mode:multiply"/><polygon points="432.16 101.48 461.37 74.52 464.61 82.81 435.48 109.77 432.16 101.48" style="fill:#6c9e96;opacity:0.4;mix-blend-mode:multiply"/><polygon points="531.7 82.81 523.4 74.52 523.4 45.9 531.7 37.61 531.7 82.81" style="fill:#6c9e96;opacity:0.4;mix-blend-mode:multiply"/><polygon points="39.8 37.61 48.1 45.9 523.4 45.9 531.7 37.61 39.8 37.61" style="fill:#48fff6;opacity:0.21"/><polygon points="37.51 42.78 48.1 45.9 48.17 35.22 37.51 42.78" style="fill:#6c9e96"/><polygon points="36.78 102.36 48.1 101.48 47.27 112.31 36.78 102.36" style="fill:#4d7c72"/><polygon points="523.9 35.7 523.4 45.9 534.86 44.65 523.9 35.7" style="fill:#6c9e96"/><polygon points="428.82 113.3 432.16 101.48 442.31 106.74 428.82 113.3" style="fill:#4d7c72"/><path d="M533.52,75.38c-.45-.21-10.57-.86-10.57-.86l1.27,8.29,7.31-2.56Z" style="fill:#4d7c72"/><polygon points="468.53 83.3 461.39 74.59 460.06 91.14 468.53 83.3" style="fill:#4d7c72"/></g><g style="mix-blend-mode:overlay"><image width="552" height="78" transform="translate(7.49 0.84)" xlink:href="cyan%20button2.png"/></g><g style="opacity:0.64;mix-blend-mode:overlay"><image width="599" height="96" transform="translate(-15.51 -4.16)" xlink:href="cyan%20button3.png"/></g></g></g></svg>