<svg id="Layer_1" data-name="Layer 1" xmlns="http://www.w3.org/2000/svg" viewBox="0 0 543.46 222.44">
    <title>CS logo</title>
        <g>
        <path d="M370.64,136.37a80.85,80.85,0,0,0-1-29.22C367,94.33,363.31,81.74,360,69.06c-1.11-4.27-2.34-8.52-3.65-12.73-.8-2.57.32-4,2.63-4.13a24.51,24.51,0,0,1,7.65.55c14,3.66,22.32,10.74,24.25,24.68,3.62,26.05,2,51.7-5.62,76.86-1.67,5.46-4.54,10.57-6.93,15.8a15.48,15.48,0,0,1-2,3.08c-4.49,5.55-8.62,5.44-11.29-1.1-5.54-13.61-10.64-27.41-15.47-41.29-3.74-10.75-6.8-21.73-10.56-32.69-.06,1.34-.18,2.68-.17,4,.16,22.5,5.33,44,13,65,.54,1.49,1.31,3.08,1.17,4.55-.1,1.16-1.36,3.08-2.25,3.17-7.52.71-15.28,1.19-21.35-4.34a22.74,22.74,0,0,1-5.79-9.08c-5.16-14.9-5.31-30.41-4.25-45.89,1.22-17.69,4.45-35.06,10.95-51.65a99.34,99.34,0,0,1,6.47-12.77A4.46,4.46,0,0,1,340.18,49a4.32,4.32,0,0,1,3,2.65c1.52,5.81,2.87,11.67,3.93,17.58,2.82,15.56,4.87,31.28,10.9,46.11C361,122.81,364.69,129.77,370.64,136.37Z" style="fill:#c66606" />
        <path d="M509.69,191.29c12.71.17,13.3.11,14.49,10.4.69,5.89-.74,12.08-1.69,18.06-.16,1-2.7,2.24-4.19,2.32-10.34.49-20.17-2.29-30-5.09-17.61-5-35-10.66-50.8-20.24-11.76-7.14-22.15-15.8-29.84-27.45-9.74-14.75-8.59-29.13,3.87-41.71,5.18-5.23,10.8-10,16.26-15,5.83-5.25,5.84-7.88-.41-12.87-7.38-5.89-16.22-8-25.36-8.78-3.07-.26-5-1.3-5.78-4-1.92-6.45-3.91-12.89-5.37-19.45-.9-4.08.44-5.2,4.63-4.44,10.8,2,20.67,6.47,29.72,12.4,6.32,4.13,11.95,9.33,17.68,14.3a19.93,19.93,0,0,1,4,5.69c3.62,6.64,3.11,12-1.9,17.6-3.11,3.47-6.64,6.56-9.9,9.89-10.29,10.49-10.86,18.63-1.8,30.18s21.36,19.44,34.39,26C481.55,186.09,496.14,190.56,509.69,191.29Z" style="fill:#c66606" />
        <path d="M2.49,207.38c.64-11.71-.34-12,12.68-14.42,22.83-4.29,44.48-11.35,63.35-25.38,7-5.22,13.59-11,18.17-18.58,5.18-8.61,4.47-16.14-2.37-23.56-3.58-3.88-7.54-7.4-11.15-11.25-6.83-7.3-7.09-14.08-.93-22.1,8.24-10.74,19.49-17.52,31.53-23a111.05,111.05,0,0,1,17.74-6c4.19-1.11,5.48.15,4.6,4.29-1.37,6.45-3.24,12.81-5.06,19.16-.87,3-3,4.1-6.31,4.41-9.52.88-18.7,3.15-26.16,9.69-4.78,4.19-4.76,6.88-.07,11.22,5.69,5.25,11.71,10.16,17.07,15.72,12.46,12.92,13.59,26.63,3.75,41.74-8.9,13.66-21.4,23.33-35.66,30.68C62,211.22,38.85,218,14.94,222.42a20,20,0,0,1-2.18.28c-6.75.38-8.17-.64-9.33-7.2C2.9,212.49,2.72,209.41,2.49,207.38Z" style="fill:#c66606" />
        <path d="M190.18,123.86c2.47,6.78,4.35,13.51,7.32,19.72,3.9,8.17,8.68,15.92,13,23.89.74,1.36,1.61,2.94,1.53,4.36a4.44,4.44,0,0,1-2.33,3.25,39.8,39.8,0,0,1-23.25.62,6.57,6.57,0,0,1-3.18-2.21c-9.73-12.26-13.6-26.5-13.59-41.88,0-19.1,6.73-36,18.47-51.91l-6.45,2.38-1-.54c2-5.26,4.06-10.52,6.2-16.09,15.54,11.17,32.65,14.13,51.2,13.49-.66,4.59-1.59,9.23-2,13.92-1.83,22.74-.29,44.94,11.34,65.35a44.37,44.37,0,0,0,4.8,7c2.23,2.6,1.26,4.91-1.22,5.47a220.71,220.71,0,0,1-23.1,4c-3.16.36-4.57-2.62-4.83-5.52-.85-9.65-1.57-19.3-2.31-29-.24-3.18-.23-6.39-.67-9.54a3.67,3.67,0,0,0-2.2-2.55c-8.57-1.6-17.17-3-25.76-4.38A10.65,10.65,0,0,0,190.18,123.86ZM211,91.75l-1.59-.46-7.22,10.11.61,1.21a44.18,44.18,0,0,0,7.37.8c.94,0,2.64-1.75,2.57-2.58A77.27,77.27,0,0,0,211,91.75Z" style="fill:#c66606" />
        <path d="M264.21,130.71l2.66-5c.87-1.62,1.63-3.31,2.64-4.84,2.78-4.16,4.6-4.12,7.25.05a25.34,25.34,0,0,0,2.3,3.76c1.11,1.2,2.67,2.92,3.89,2.81s2.66-2.14,3.07-3.59c1.65-5.89,3.65-11.82,4.21-17.85.88-9.5.84-19.09.9-28.64,0-5,1.49-9.12,6.13-11.22,7.7-3.49,15.58-6.56,23.37-9.86,3-1.28,4.35.22,4.21,2.93a135,135,0,0,1-1.48,17.19c-4.17,23.13-10,45.83-20,67.21-3.57,7.63-8.33,14.71-12.67,22a15,15,0,0,1-3.49,3.75c-3.86,3.16-7.15,2-7.76-3-.8-6.57-.86-13.23-1.56-19.81-.35-3.28-1.41-6.48-2.15-9.72l-1.54-.05c-.77,2.08-1.88,4.1-2.24,6.24-1.14,6.78-1.8,13.64-3.11,20.37-.43,2.26-1.76,5.25-3.56,6.14-2.87,1.42-5.59-.59-7.52-3.15-7.8-10.35-11.79-22.33-14.34-34.77a132.37,132.37,0,0,1-1-45.79c.07-.48.1-1,.19-1.46,1.36-6.93,1.86-7.52,8.79-8.6a35.61,35.61,0,0,1,8.43-.46c4.68.4,6.08,2.15,5.48,6.82-1,7.79-2.31,15.54-3.44,23.31-1.09,7.45-1.56,14.91.37,22.31.24.93.64,1.82,1,2.73Z" style="fill:#c66606" />
        <path d="M176.42,176.36c-9.5,6.56-19.6,11-31.07,11.76-5.56.34-6.48-.89-7.08-6.32-2.91-26.26-1.61-52.49.82-78.66,1.2-12.91,3.81-25.68,5.65-38.53.38-2.64,1.88-3.68,4.15-3.66,7.47.1,15-.25,22.39.71,8.89,1.17,11.62,5.92,9.48,14.7-2.63,10.8-8.37,20.13-14.65,29.1a132.45,132.45,0,0,1-10.28,13c-2.22,2.45-2.31,4.88-1.79,7.75C157.1,143,164.57,158,174,172.09c.61.92,1.29,1.79,1.89,2.71A9.54,9.54,0,0,1,176.42,176.36ZM157.66,83.55c-.41,3.21-.81,6.41-1.28,10.15C160.79,90.72,161.39,87.16,157.66,83.55Z" style="fill:#c66606" />
        <path d="M541.93,20.15c-.25,3-.11,6-.82,8.88-7.22,28.83-18.59,55.66-39.31,77.6A84.47,84.47,0,0,1,467.53,129c-6.47,2.21-13.18,3.13-20,1.69-1.5-.32-2.72-1.94-4.07-3a22.35,22.35,0,0,1,3.23-3.48c19.52-13.66,39.26-27,55.47-44.8,15.59-17.08,29.37-35.29,37.28-57.33a15.6,15.6,0,0,1,1.19-2.15Z" style="fill:#c66606" />
        <path d="M5.65,25.52c.28,1.75.52,3.51.83,5.27,2,11.64,7.61,21.75,14.07,31.37a226.87,226.87,0,0,0,43.73,48.63c5.47,4.52,10.91,9.23,18.28,10.68.51.1,1.21,2.75.75,3.7-1.63,3.42-5,4.56-8.48,5.11-9,1.41-17.07-.89-24.53-5.81a81.92,81.92,0,0,1-21.1-20.41C15.45,85.14,7.24,63.83,3,41c-.72-3.9-.17-8.06.08-12.08.07-1.22,1.06-2.39,1.64-3.58Z" style="fill:#c66606" />
        <path d="M2.68,130.18c1.12.72,2.26,1.4,3.34,2.17a68.81,68.81,0,0,0,34.89,12.7c7.84.66,15-2.14,22.07-5a50.35,50.35,0,0,1,7.9-3c4.67-1,6.94,1.09,7,5.89,0,4.44-2.21,7.76-5.35,10.48-9.41,8.15-20.36,9.8-31.77,5.8a92.6,92.6,0,0,1-34.1-21.34c-2-2-3.43-4.5-5.12-6.77Z" style="fill:#c66606" />
        <path d="M535.3,120a29.92,29.92,0,0,1-2.9,4.43,105.24,105.24,0,0,1-40.81,27.54c-7.28,2.68-14.76,2.63-21.78-1.22a14.6,14.6,0,0,1-4.8-3.88c-1-1.43-1.19-3.51-1.73-5.3,1.43-.41,2.86-.86,4.31-1.21.83-.2,1.71-.16,2.55-.35q17.42-4,34.82-8c9-2,17.06-6.1,24.92-10.72,1.44-.85,3-1.53,4.48-2.28Z" style="fill:#c66606" />
        <path d="M341.51,19.2l-5.45,2.86.82,1.57L333,25.42l3.42,6.67-10.15,5.17,3,8.1-6.07,2.45c.66,1.66,1.31,3.32,2,5l11.38-4.52c-1.17-2.84-2.15-5.2-3.25-7.86L343,36c1.52,2.64,2.83,4.92,4.26,7.43l5.22-2.73-3.76-6.59,5.5-3.21-2.69-4.64-5,2.39-3.87-7,4.55-3-4-6.9-3.95,3Z" style="fill:#c66606" />
        <path d="M331.28,7l1.32-5.6-18.17,8.78,4.88,2.62Z" style="fill:#c66606" />
        <path d="M324.7,36.66l10-5.1-2.88-5.63-4.34,2c-1.74-3.76-3.36-7.28-5.24-11.32l8.79-4.19c1.48,2.86,2.93,5.66,4.45,8.58l4.36-2.29-2.2-4.31,4.91-3.71-6.34-11L334,.74l-1.68,7.14-13.06,6.33-6.23-3.34-3.75,1.81,13.36,34,4.95-2Z" style="fill:#c66606" />
        <path d="M353.57,40.13l4.61-2.41L354.84,32l-4.45,2.6Z" style="fill:#c66606" />
        <path d="M236,46.1l10.5-.73V41.84l-4.87.24V34.24h9.17c.19,2.35.37,4.68.58,7.35l-3.65.19v4.74l-10.54.73-.37,10.84-7.08.29q-.09,3-.17,6.07c0,.68,1.61,2,2.52,2,4.9.21,9.81.28,14.72.24,0-1.16,0-2.65.09-4.63v-.57L257.42,61l-.09-4.77,6.86-.23c-.27-2.19-.54-4.36-.8-6.54H258c-.22-2.55-.43-5-.65-7.61l5.09-.65c-.68-5.7-1.32-11.11-1.91-16h-4L253.16,31h-.35c-5-.07-13-.13-14.27,0l-.08.08-.32,0c-.32-.05-.54-.1-3.45-5.76h-3.86c-.39,11-.79,21.53-1.09,32l5.86-.24ZM252.34,58H241.83V50.6h10C252,53,252.16,55.32,252.34,58Z" style="fill:#c66606" />
        <path d="M252.47,29.71l2.7-4.53H236.08c1.1,2.12,2.06,3.92,2.45,4.52C239.68,29.61,242.89,29.59,252.47,29.71Z" style="fill:#c66606" />
        <path d="M258.67,62.2l-10.59.47c0,1.38-.05,2.79-.06,4h.61c5.48-.09,10.95-.45,16.79-.71-.37-3-.73-5.9-1.07-8.72l-5.77.19Z" style="fill:#c66606" />
        <path d="M275.93,26.54l11.27-3.36-.86-3.79-15.63,3.8q1.11,6.39,2.23,12.83c1-.17,2.45-.37,4.47-.62Z" style="fill:#c66606" />
        <path d="M277.32,27.4l1.51,9.07-.63.07c-1.77.22-3.65.47-5.05.7q1.25,7.2,2.51,14.53l6-1.25,1.66,8.11,14.51-3.25-.72-3.54-9.06,2.22-1.6-7.78,21.27-5.6c-.54-1.61-1-3.06-1.49-4.45L294,40.16,293.62,39l12.23-3.93c-.33-1-.65-2-1-2.92l-20.56,5.29c-.58-2.84-1.07-5.28-1.57-7.73l19.6-5.41-2.83-8.1-12,2.91L288.65,24Z" style="fill:#c66606" />
        <path d="M282.38,60.11,280.72,52l-4.85,1c.69,3.94,1.38,7.91,2.07,11.95l35.19-7.8c-1.08-3.32-1.9-5.84-2.78-8.56l-12,3,1,4.78Z" style="fill:#c66606" />
        <path d="M153.62,52.83,168,58.66c.41-1.29.76-2.44,1.1-3.52l-13.79-5.63Z" style="fill:#c66606" />
        <path d="M172.93,22.13l-1.66,4.36,6,2.19c.93-3,1.68-5.38,2.48-7.93l-15.11-5.82-1.22,3.55Z" style="fill:#c66606" />
        <path d="M169.42,54c.33-1.07.65-2.08,1-3.08l-21.95-8.7c3.08-7.14,6-13.93,8.94-20.78l12.74,4.67,1.23-3.23-9.5-3.63,1.63-4.72-7.69-3-1.89,3.05-4.65-1.9-1.44,2.91c1.38,2.81,2.72,5.57,3.42,7l.12.26-5.6,12.49h-.4c-2.85,0-5.23,0-7.25,0l-2.49,5.05,5,2.87c-.32,1.34-.57,2.36-1,3.93l12.84,5.22,2.19-4.43Z" style="fill:#c66606" />
        <path d="M150,22.87,147.12,17c-2.84,5.75-5.63,11.42-8.42,17.08,2.18,0,4.37,0,6.24,0Z" style="fill:#c66606" />
        <path d="M200.71,56.82l-6.11,4.72,10.39,2c.81-5.44,1.59-10.61,2.36-15.76l-4.83-.7Z" style="fill:#c66606" />
        <path d="M219.65,33.82c.25-3,.5-6,.77-9.18l-4.33-.55-1.32,9.35Z" style="fill:#c66606" />
        <path d="M202.58,34.37l.87-4-3.84-.71c.45-2.76.83-5.14,1.27-7.84l-4-.86-2.14,11.8Z" style="fill:#c66606" />
        <path d="M201.52,45.7l6,.89c.12-.76.23-1.52.34-2.29h5.29c.26-1.24.48-2.28.72-3.39h5.18c.16-2,.33-3.91.49-5.87l-6.19-.47,1.51-10.64-4.4-.56c-.53,2.78-1,5.26-1.52,8l-4.28-.78-1.15,5.25-10.24-2.11,2.35-13-4.63-1c-1.35,5.43-2.61,10.47-3.88,15.57L192.05,37c-.18,1.25-.34,2.32-.51,3.54l5,1.62L193,61.22H193l6.59-5.1Z" style="fill:#c66606" />
        <polygon points="188.16 13.95 188.01 14.55 188.16 13.95 188.16 13.95" style="fill:#c66606" />
    </g>
</svg>