<svg xmlns="http://www.w3.org/2000/svg" xmlns:xlink="http://www.w3.org/1999/xlink" viewBox="0 0 641.11 214"><defs><linearGradient id="linear-gradient" x1="-211.99" y1="-7085.64" x2="-211.99" y2="51.12" gradientUnits="userSpaceOnUse"><stop offset="0.05" stop-color="#7c205f"/><stop offset="0.07" stop-color="#721f5a"/><stop offset="0.17" stop-color="#541b4c"/><stop offset="0.27" stop-color="#3b1840"/><stop offset="0.39" stop-color="#281537"/><stop offset="0.52" stop-color="#1a1331"/><stop offset="0.69" stop-color="#12122d"/><stop offset="1" stop-color="#10122c"/></linearGradient><clipPath id="clip-path"><rect x="-1173.6" y="-1166.75" width="1921.87" height="1113.31" style="fill:none"/></clipPath><clipPath id="clip-path-2"><rect x="-1172.55" y="-6769.42" width="1921.13" height="6715.96" style="fill:url(#linear-gradient)"/></clipPath><linearGradient id="linear-gradient-3" x1="1774.2" y1="-7079.2" x2="1774.2" y2="57.56" xlink:href="#linear-gradient"/><linearGradient id="linear-gradient-4" x1="15.7" y1="107" x2="625.06" y2="107" gradientUnits="userSpaceOnUse"><stop offset="0" stop-color="#9b9b9b"/><stop offset="0.1" stop-color="#7e7e7e"/><stop offset="0.21" stop-color="#656665"/><stop offset="0.33" stop-color="#525352"/><stop offset="0.48" stop-color="#444544"/><stop offset="0.66" stop-color="#3c3d3c"/><stop offset="0.99" stop-color="#3a3b3a"/></linearGradient></defs><title>newsletter</title><g style="isolation:isolate"><g id="Layer_1" data-name="Layer 1"><g style="clip-path:url(#clip-path)"><rect x="-1172.55" y="-6769.42" width="1921.13" height="6715.96" style="fill:url(#linear-gradient)"/><g style="clip-path:url(#clip-path-2)"><image width="910" height="512" transform="matrix(0, -3.81, -3.81, 0, 761.64, 150.76)" xlink:href="newsletter1.png" style="opacity:0.07;mix-blend-mode:screen"/></g></g><rect x="813.63" y="-6762.97" width="1921.13" height="6715.96" style="fill:url(#linear-gradient-3)"/><g style="mix-blend-mode:screen"><image width="304" height="649" transform="translate(-21.05 5.91) scale(0.24)" xlink:href="newsletter2.png" style="mix-blend-mode:screen"/><polygon points="15.42 125.47 14.96 83.58 15.42 41.98 15.7 83.56 15.42 125.47" style="fill:#76cfe6"/></g><g style="mix-blend-mode:screen"><image width="304" height="649" transform="translate(589.03 5.91) scale(0.24)" xlink:href="newsletter3.png" style="mix-blend-mode:screen"/><polygon points="625.52 125.47 625.06 83.58 625.52 41.98 625.8 83.56 625.52 125.47" style="fill:#76cfe6"/></g><polygon points="353.02 214 42.41 214 42.41 152.27 15.7 125.56 15.7 41.98 164.08 41.98 206.06 0 428.43 0 469.52 41.74 625.06 41.74 625.06 126.07 598.35 152.78 354.01 152.78 353.02 214" style="opacity:0.44;mix-blend-mode:screen;fill:url(#linear-gradient-4)"/><polygon points="588.46 102.8 588.46 69.16 98.79 69.16 65.16 102.8 65.16 136.43 554.83 136.43 588.46 102.8" style="fill:#58489d;opacity:0.28;mix-blend-mode:screen"/></g></g></svg>