<svg xmlns="http://www.w3.org/2000/svg" xmlns:xlink="http://www.w3.org/1999/xlink" viewBox="0 0 1692.58 1430.63"><defs><linearGradient id="linear-gradient" x1="1417.7" y1="413.78" x2="278.96" y2="413.78" gradientUnits="userSpaceOnUse"><stop offset="0" stop-color="#9b9b9b"/><stop offset="0.1" stop-color="#7e7e7e"/><stop offset="0.21" stop-color="#656565"/><stop offset="0.33" stop-color="#525252"/><stop offset="0.48" stop-color="#444"/><stop offset="0.66" stop-color="#3c3c3c"/><stop offset="0.99" stop-color="#3a3a3a"/></linearGradient></defs><title>play to earn platform1</title><g style="isolation:isolate"><g id="Layer_1" data-name="Layer 1"><g id="Earn"><line x1="671.58" y1="4.91" x2="671.58" y2="116.97" style="fill:none;stroke:#1e3659;stroke-miterlimit:10;stroke-width:4px;mix-blend-mode:soft-light"/><line x1="795.79" y1="4.91" x2="795.79" y2="116.97" style="fill:none;stroke:#1e3659;stroke-miterlimit:10;stroke-width:4px;mix-blend-mode:soft-light"/><g style="mix-blend-mode:soft-light"><path d="M623.49,4.91c.82,9.34,1.26,18.68,1.55,28,.19,4.66.23,9.33.33,14l.11,14-.1,14c-.11,4.67-.15,9.34-.33,14-.3,9.33-.73,18.67-1.56,28-.84-9.34-1.27-18.68-1.56-28-.19-4.67-.23-9.34-.34-14l-.1-14,.11-14c.11-4.67.15-9.34.33-14C622.23,23.59,622.66,14.25,623.49,4.91Z" style="fill:#1e3659"/></g><g style="mix-blend-mode:soft-light"><path d="M722,4.91c.83,9.34,1.26,18.68,1.56,28,.18,4.66.22,9.33.33,14l.11,14-.11,14c-.11,4.67-.14,9.34-.33,14-.29,9.33-.73,18.67-1.56,28-.83-9.34-1.27-18.68-1.56-28-.19-4.67-.22-9.34-.33-14l-.11-14,.11-14c.11-4.67.15-9.34.34-14C720.72,23.59,721.15,14.25,722,4.91Z" style="fill:#1e3659"/></g><g style="mix-blend-mode:soft-light"><path d="M746.41,4.91c.83,9.34,1.26,18.68,1.56,28,.18,4.66.22,9.33.33,14l.11,14-.11,14c-.11,4.67-.14,9.34-.33,14-.29,9.33-.73,18.67-1.56,28-.83-9.34-1.27-18.68-1.56-28-.19-4.67-.22-9.34-.33-14l-.11-14,.11-14c.11-4.67.15-9.34.34-14C745.15,23.59,745.58,14.25,746.41,4.91Z" style="fill:#1e3659"/></g><g style="mix-blend-mode:soft-light"><path d="M771.1,4.91c.83,9.34,1.26,18.68,1.55,28,.19,4.66.23,9.33.34,14l.11,14L773,75c-.11,4.67-.14,9.34-.33,14-.29,9.33-.73,18.67-1.56,28-.83-9.34-1.27-18.68-1.56-28-.19-4.67-.22-9.34-.33-14l-.11-14,.11-14c.11-4.67.15-9.34.33-14C769.84,23.59,770.27,14.25,771.1,4.91Z" style="fill:#1e3659"/></g><g style="mix-blend-mode:soft-light"><polyline points="169.18 66.29 169.18 180.67 195.99 207.48 256.36 207.48" style="fill:none;stroke:#1e3659;stroke-miterlimit:10;stroke-width:4px"/><polyline points="117.1 64.36 117.1 322.62 163.78 383.19 256.36 383.19" style="fill:none;stroke:#1e3659;stroke-miterlimit:10;stroke-width:4px"/><polyline points="62.33 64.36 62.33 345 136.78 429.09 256.36 429.09" style="fill:none;stroke:#1e3659;stroke-miterlimit:10;stroke-width:4px"/><polyline points="8.32 64.36 8.32 367.75 117.1 480.01 256.36 480.01" style="fill:none;stroke:#1e3659;stroke-miterlimit:10;stroke-width:4px"/><path d="M144.88,64.36q1,30.45,1.45,60.9l.26,15.23.19,15.22q.19,15.22.31,30.45l.19,30.45.08,30.45c0,10.15,0,20.3,0,30.45s0,20.3-.13,30.45l-.45-1.37,17.37,23.86,17.26,23.94-1.39-.7,19.09.32,19.1.37q19.1.39,38.19,1-19.1.63-38.19,1l-19.1.37-19.09.32-.85,0-.54-.71-17.84-23.51L143,309.34l-.44-.59V308c-.1-10.15-.1-20.3-.13-30.45s-.08-20.3,0-30.45l.08-30.45.2-30.45c.05-10.15.17-20.3.3-30.45l.19-15.22.26-15.23C143.76,105,144.2,84.66,144.88,64.36Z" style="fill:#48eeff"/><path d="M256.36,234.29c-5.05.29-10.1.53-15.14.75l-15.14.55-15.14.44-15.14.32,2-2.06.34,24.78.1,24.78-.1,24.79-.33,24.78-2.06-2.06,15.14.32,15.14.43,15.14.56c5,.22,10.09.46,15.14.75-5.05.3-10.1.54-15.14.76l-15.14.56-15.14.43-15.14.32-2,0,0-2.11-.33-24.78-.1-24.79.1-24.78.34-24.78,0-2.11,2,0,15.14.32,15.14.43,15.14.55C246.26,233.75,251.31,234,256.36,234.29Z" style="fill:#48eeff"/><path d="M88.94,64.36l.42,16.7.32,16.7c.2,11.13.46,22.26.61,33.39.34,22.26.55,44.52.76,66.78s.32,44.52.32,66.78l.07,33.39-.06,33.39-.59-1.58L106.27,348l15.42,18.13,15.4,18.13,15.35,18.19-1.39-.64,26.33.32c8.77.14,17.55.21,26.32.41L230,403c8.78.15,17.55.37,26.33.61-8.78.23-17.55.46-26.33.61l-26.33.5c-8.77.2-17.55.27-26.32.41l-26.33.31h-.82l-.57-.64L134,387,118.3,369l-15.63-17.94-15.57-18-.59-.68v-.91l-.07-33.39.07-33.39c0-22.26.21-44.52.32-66.78s.43-44.52.77-66.78c.14-11.13.41-22.26.6-33.39l.32-16.7Z" style="fill:#48eeff"/><path d="M36.87,66.29l.39,18.07.29,18.07.58,36.14.42,36.14.31,36.14.4,72.28.09,72.28-.64-1.66c14.93,16.69,29.94,33.32,44.82,50.07l22.34,25.09,22.27,25.15-1.39-.62,32.4.32,32.4.4,32.4.53,16.21.28,16.2.35-16.2.35L224,456l-32.4.52-32.4.41-32.4.32h-.82l-.58-.62-22.67-24.81L80.09,406.91C65,390.36,50.05,373.68,35,357.07l-.63-.71v-.95l.08-72.28.4-72.28.31-36.14.42-36.14.58-36.14.29-18.07Z" style="fill:#48eeff"/><rect x="165.13" y="64.36" width="8.1" height="28.35" style="fill:#48eeff"/><rect x="242.08" y="193.3" width="8.1" height="28.35" transform="translate(453.61 -38.66) rotate(90)" style="fill:#48eeff"/><rect x="242.08" y="220.11" width="8.1" height="28.35" transform="translate(480.42 -11.85) rotate(90)" style="fill:#48eeff"/><rect x="242.08" y="244.12" width="8.1" height="28.35" transform="translate(504.43 12.16) rotate(90)" style="fill:#48eeff"/><rect x="242.08" y="268.42" width="8.1" height="28.35" transform="translate(528.74 36.47) rotate(90)" style="fill:#48eeff"/><rect x="242.08" y="293.69" width="8.1" height="28.35" transform="translate(554 61.73) rotate(90)" style="fill:#48eeff"/><rect x="242.08" y="319.25" width="8.1" height="28.35" transform="translate(579.56 87.29) rotate(90)" style="fill:#48eeff"/><rect x="242.08" y="341.23" width="8.1" height="28.35" transform="translate(601.55 109.28) rotate(90)" style="fill:#48eeff"/><rect x="242.08" y="369.01" width="8.1" height="28.35" transform="translate(629.32 137.05) rotate(90)" style="fill:#48eeff"/><rect x="242.04" y="389.45" width="8.1" height="28.35" transform="translate(649.72 157.54) rotate(90)" style="fill:#48eeff"/><rect x="242.04" y="414.91" width="8.1" height="28.35" transform="translate(675.18 183) rotate(90)" style="fill:#48eeff"/><rect x="242.04" y="441.14" width="8.1" height="28.35" transform="translate(701.41 209.23) rotate(90)" style="fill:#48eeff"/><rect x="242.04" y="465.83" width="8.1" height="28.35" transform="translate(726.09 233.92) rotate(90)" style="fill:#48eeff"/><rect x="140.83" y="64.36" width="8.1" height="28.35" style="fill:#48eeff"/><rect x="113.05" y="64.36" width="8.1" height="28.35" style="fill:#48eeff"/><rect x="84.89" y="64.36" width="8.1" height="28.35" style="fill:#48eeff"/><rect x="58.28" y="64.36" width="8.1" height="28.35" style="fill:#48eeff"/><rect x="32.82" y="64.36" width="8.1" height="28.35" style="fill:#48eeff"/><rect x="4.27" y="64.36" width="8.1" height="28.35" style="fill:#48eeff"/><polygon points="30.6 345.48 30.6 358.5 38.94 366.84 46.51 366.84 46.51 358.01 42.17 353.68 42.17 345.48 36.63 339.93 30.6 345.48" style="fill:#48eeff"/><polygon points="138.66 299.57 138.66 312.59 147 320.94 154.57 320.94 154.57 312.11 150.23 307.77 150.23 299.57 144.68 294.03 138.66 299.57" style="fill:#48eeff"/><polygon points="143.35 401.48 152.56 410.68 164.35 410.68 169.71 405.33 163.47 399.09 157.33 399.09 151.53 393.29 143.69 393.29 143.35 401.48" style="fill:#48eeff"/></g><g style="mix-blend-mode:soft-light"><polyline points="1525.6 86.25 1525.6 200.63 1498.79 227.44 1438.42 227.44" style="fill:none;stroke:#1e3659;stroke-miterlimit:10;stroke-width:4px"/><polyline points="1577.68 84.33 1577.68 342.58 1531 403.15 1438.42 403.15" style="fill:none;stroke:#1e3659;stroke-miterlimit:10;stroke-width:4px"/><polyline points="1632.45 84.33 1632.45 364.96 1558 449.05 1438.42 449.05" style="fill:none;stroke:#1e3659;stroke-miterlimit:10;stroke-width:4px"/><path d="M1549.9,84.33c.29,10.15.47,20.3.66,30.45s.39,20.3.51,30.45.27,20.3.36,30.45l.24,30.45q.22,30.45.22,60.9l0,30.45-.1,30.45v.62l-.37.48-17.69,23.61-17.79,23.55-.43.57h-.68l-19.09-.25q-9.56-.12-19.1-.32l-19.09-.36c-6.37-.11-12.73-.29-19.1-.45,6.37-.16,12.73-.34,19.1-.44l19.09-.36q9.56-.19,19.1-.32l19.09-.26-1.11.56L1531,350.66l17.4-23.84-.36,1.11-.1-30.45,0-30.45c0-20.3.06-40.6.22-60.9l.24-30.45q.13-15.23.36-30.45c.11-10.15.31-20.3.51-30.45S1549.62,94.48,1549.9,84.33Z" style="fill:#1e3659"/><path d="M1438.42,254.25q7.57-.44,15.14-.75l15.14-.56,15.14-.43,15.14-.32,2,0,0,2.1.34,24.78.1,24.79-.1,24.78-.33,24.79,0,2.11-2-.05-15.14-.32-15.14-.43-15.14-.56c-5-.22-10.09-.46-15.14-.75,5-.3,10.1-.54,15.14-.76l15.14-.56,15.14-.43,15.14-.32-2.06,2.07-.33-24.79-.1-24.78.1-24.79.34-24.78,2,2.06-15.14-.32-15.14-.43-15.14-.56C1448.52,254.78,1443.47,254.54,1438.42,254.25Z" style="fill:#48eeff"/><path d="M1605.84,84.33l.42,16.69.32,16.7c.19,11.13.46,22.26.6,33.39.34,22.26.55,44.52.77,66.78s.32,44.52.32,66.78l.07,33.4-.07,33.39v.91l-.59.68-15.57,18L1576.48,389l-15.65,17.93-15.71,17.88-.57.65h-.82l-26.33-.32c-8.77-.14-17.55-.21-26.32-.4l-26.33-.51c-8.78-.15-17.55-.37-26.33-.61,8.78-.23,17.55-.46,26.33-.6l26.33-.51c8.77-.19,17.55-.27,26.32-.41l26.33-.31-1.39.63,15.35-18.18,15.4-18.14,15.42-18.13L1604,349.87l-.59,1.59-.06-33.39.07-33.4c0-22.26.2-44.52.32-66.78s.42-44.52.76-66.78c.15-11.13.41-22.26.61-33.39l.32-16.7Z" style="fill:#48eeff"/><path d="M1657.91,86.26l.4,18.06.29,18.07.58,36.14.42,36.14.31,36.14.4,72.28.08,72.28v1l-.63.7c-15,16.61-30,33.29-45.07,49.84l-22.59,24.87-22.67,24.8-.58.63H1568l-32.4-.32-32.4-.4-32.4-.53-16.21-.27-16.2-.36,16.2-.35,16.21-.28,32.4-.52,32.4-.41,32.4-.32-1.39.63,22.27-25.16,22.34-25.09c14.88-16.75,29.89-33.37,44.82-50.07l-.64,1.66.09-72.28.4-72.28.31-36.14.42-36.14.58-36.14.29-18.07Z" style="fill:#48eeff"/><polyline points="1686.46 84.33 1686.46 387.72 1577.68 499.97 1438.42 499.97" style="fill:none;stroke:#1e3659;stroke-miterlimit:10;stroke-width:4px"/><rect x="1521.55" y="84.33" width="8.1" height="28.35" transform="translate(3051.2 197.01) rotate(-180)" style="fill:#48eeff"/><rect x="1444.59" y="213.26" width="8.1" height="28.35" transform="translate(1676.08 -1221.21) rotate(90)" style="fill:#48eeff"/><rect x="1444.59" y="240.07" width="8.1" height="28.35" transform="translate(1702.89 -1194.4) rotate(90)" style="fill:#48eeff"/><rect x="1444.59" y="264.08" width="8.1" height="28.35" transform="translate(1726.91 -1170.38) rotate(90)" style="fill:#48eeff"/><rect x="1444.59" y="288.39" width="8.1" height="28.35" transform="translate(1751.21 -1146.08) rotate(90)" style="fill:#48eeff"/><rect x="1444.59" y="313.65" width="8.1" height="28.35" transform="translate(1776.47 -1120.82) rotate(90)" style="fill:#48eeff"/><rect x="1444.59" y="339.21" width="8.1" height="28.35" transform="translate(1802.03 -1095.26) rotate(90)" style="fill:#48eeff"/><rect x="1444.59" y="361.2" width="8.1" height="28.35" transform="translate(1824.02 -1073.27) rotate(90)" style="fill:#48eeff"/><rect x="1444.59" y="388.97" width="8.1" height="28.35" transform="translate(1851.79 -1045.5) rotate(90)" style="fill:#48eeff"/><rect x="1444.64" y="409.42" width="8.1" height="28.35" transform="translate(1872.28 -1025.1) rotate(90)" style="fill:#48eeff"/><rect x="1444.64" y="434.87" width="8.1" height="28.35" transform="translate(1897.74 -999.64) rotate(90)" style="fill:#48eeff"/><rect x="1444.64" y="461.11" width="8.1" height="28.35" transform="translate(1923.98 -973.41) rotate(90)" style="fill:#48eeff"/><rect x="1444.64" y="485.79" width="8.1" height="28.35" transform="translate(1948.66 -948.72) rotate(90)" style="fill:#48eeff"/><rect x="1545.85" y="84.33" width="8.1" height="28.35" transform="translate(3099.81 197.01) rotate(-180)" style="fill:#48eeff"/><rect x="1573.63" y="84.33" width="8.1" height="28.35" transform="translate(3155.36 197.01) rotate(-180)" style="fill:#48eeff"/><rect x="1601.79" y="84.33" width="8.1" height="28.35" transform="translate(3211.67 197.01) rotate(-180)" style="fill:#48eeff"/><rect x="1628.4" y="84.33" width="8.1" height="28.35" transform="translate(3264.91 197.01) rotate(-180)" style="fill:#48eeff"/><rect x="1653.86" y="84.33" width="8.1" height="28.35" transform="translate(3315.83 197.01) rotate(-180)" style="fill:#48eeff"/><rect x="1682.41" y="84.33" width="8.1" height="28.35" transform="translate(3372.92 197.01) rotate(-180)" style="fill:#48eeff"/><polygon points="1664.18 365.44 1664.18 378.46 1655.84 386.8 1648.27 386.8 1648.27 377.98 1652.61 373.64 1652.61 365.44 1658.15 359.89 1664.18 365.44" style="fill:#48eeff"/><polygon points="1556.12 319.54 1556.12 332.56 1547.78 340.9 1540.21 340.9 1540.21 332.07 1544.55 327.73 1544.55 319.54 1550.1 313.99 1556.12 319.54" style="fill:#48eeff"/><polygon points="1551.43 421.44 1542.22 430.65 1530.43 430.65 1525.07 425.29 1531.31 419.05 1537.45 419.05 1543.25 413.26 1551.09 413.26 1551.43 421.44" style="fill:#48eeff"/></g><g style="mix-blend-mode:soft-light"><rect x="473.83" y="711.37" width="10.3" height="36.04" style="fill:#48eeff"/><rect x="506.52" y="711.37" width="10.3" height="36.04" style="fill:#48eeff"/><rect x="537.49" y="711.37" width="10.3" height="36.04" style="fill:#48eeff"/><rect x="569.2" y="711.37" width="10.3" height="36.04" style="fill:#48eeff"/><rect x="600.26" y="711.37" width="10.3" height="36.04" style="fill:#48eeff"/><rect x="631.35" y="711.37" width="10.3" height="36.04" style="fill:#48eeff"/><rect x="663.39" y="711.37" width="10.3" height="36.04" style="fill:#48eeff"/><rect x="694.61" y="711.37" width="10.3" height="36.04" style="fill:#48eeff"/><rect x="725.5" y="711.37" width="10.3" height="36.04" style="fill:#48eeff"/><rect x="756.31" y="711.37" width="10.3" height="36.04" style="fill:#48eeff"/><rect x="787.61" y="711.37" width="10.3" height="36.04" style="fill:#48eeff"/><rect x="819.32" y="711.37" width="10.3" height="36.04" style="fill:#48eeff"/><polyline points="479.1 755.25 479.1 958.75 555.11 1010.24 555.11 1065.64 513.42 1103.4 96.15 1103.4" style="fill:none;stroke:#1e3659;stroke-miterlimit:10;stroke-width:4px"/><polyline points="511.46 755.25 511.46 936.19 587.47 990.13 587.47 1090.16 535.74 1141.89 182.44 1141.89" style="fill:none;stroke:#1e3659;stroke-miterlimit:10;stroke-width:4px"/><line x1="636.5" y1="755.26" x2="636.5" y2="835.67" style="fill:none;stroke:#1e3659;stroke-miterlimit:10;stroke-width:4px"/><polyline points="761.54 755.25 761.54 916.34 687.74 970.27 687.74 1281.15 735.8 1341.71 802.4 1341.71 877.97 1419.64" style="fill:none;stroke:#1e3659;stroke-miterlimit:10;stroke-width:4px"/><polyline points="824.55 755.25 824.55 957.03 750.75 1008.4 750.75 1149.25 821.36 1226.72 1248.95 1226.72" style="fill:none;stroke:#1e3659;stroke-miterlimit:10;stroke-width:4px"/><line x1="893.28" y1="1129.88" x2="1123.09" y2="1129.88" style="fill:none;stroke:#1e3659;stroke-miterlimit:10;stroke-width:4px"/><polyline points="741.93 1247.56 785.57 1299.05 1251.89 1299.05" style="fill:none;stroke:#1e3659;stroke-miterlimit:10;stroke-width:4px"/><polyline points="1072.91 1340.73 856.18 1340.73 889.73 1376.86" style="fill:none;stroke:#1e3659;stroke-miterlimit:10;stroke-width:4px"/><polyline points="1156.76 1340.73 1221 1340.73 1248.95 1371.73" style="fill:none;stroke:#1e3659;stroke-miterlimit:10;stroke-width:4px"/><line x1="74.66" y1="1253.52" x2="123.44" y2="1210.62" style="fill:none;stroke:#1e3659;stroke-miterlimit:10;stroke-width:4px"/><polyline points="111.86 1279.64 222.81 1185.78 430.07 1185.78" style="fill:none;stroke:#1e3659;stroke-miterlimit:10;stroke-width:4px"/><polyline points="430.07 1225.34 241.77 1225.34 113.37 1332.9" style="fill:none;stroke:#1e3659;stroke-miterlimit:10;stroke-width:4px"/><line x1="500.02" y1="1187.09" x2="500.02" y2="1422.28" style="fill:none;stroke:#1e3659;stroke-miterlimit:10;stroke-width:4px"/><image width="1348" height="737" transform="translate(130.32 724.43)" xlink:href="play%20to%20earn%20platform11.png" style="mix-blend-mode:screen"/><polygon points="542.85 755.25 543.23 775.54 543.52 795.83 544.09 836.41 544.5 876.98 544.82 917.56 543.97 915.94 581.38 941.47 618.75 967.07 619.78 967.78 619.78 969.05 619.87 1038.43 619.77 1107.82 619.77 1108.76 619.13 1109.44 587.85 1142.89 556.5 1176.28 557 1174.99 556.69 1212.9 556.28 1250.81 555.74 1288.72 555.47 1307.68 555.1 1326.63 554.74 1307.68 554.47 1288.72 553.93 1250.81 553.52 1212.9 553.21 1174.99 553.2 1174.26 553.71 1173.7 584.64 1139.92 615.63 1106.19 614.99 1107.82 614.88 1038.43 614.98 969.05 616.01 971.02 578.85 945.13 541.73 919.18 540.87 918.58 540.88 917.56 541.19 876.98 541.6 836.41 542.17 795.83 542.46 775.54 542.85 755.25" style="fill:#48eeff"/><path d="M574.72,755.26c.91,12,1.4,24,1.79,36,.17,6,.36,12,.43,18l.16,9,.06,9c0,6,.08,12,0,18s0,12-.18,18l-.15,9-.24,9c-.15,6-.41,12-.64,18l-.67-1.11c3,1.8,6.05,3.57,9.06,5.39l4.51,2.73,4.48,2.79-4.84-2.11-4.8-2.16c-3.2-1.46-6.38-3-9.57-4.43l-.64-.29,0-.81c-.23-6-.5-12-.64-18l-.24-9-.16-9c-.13-6-.13-12-.17-18s0-12,0-18l.06-9,.15-9c.08-6,.26-12,.43-18C573.32,779.28,573.81,767.27,574.72,755.26Z" style="fill:#48eeff"/><path d="M699.76,755.26c1,7.19,1.56,14.38,2,21.57s.53,14.38.54,21.58-.17,14.38-.54,21.57-.92,14.38-2,21.58c-1-7.2-1.57-14.39-2-21.58s-.54-14.38-.53-21.57.17-14.39.54-21.58S698.72,762.45,699.76,755.26Z" style="fill:#48eeff"/><path d="M730.16,755.26l.52,35.55.42,35.55c.12,11.85.32,23.7.38,35.55l.25,35.55v.79l-.66.48L694,926l-18.53,13.62L656.9,953.16l.9-1.77.25,87,0,87-.18,87-.16,43.48-.31,43.47-.41-1.15,32.07,39.75,16,19.88,16,20-.74-.35,36,.42c12,.12,24,.35,36,.53-12,.19-24,.41-36,.53l-36,.43h-.44l-.3-.35-16.41-19.57-16.33-19.64-32.65-39.28-.4-.48v-.67l-.3-43.47-.17-43.48-.18-87,0-87,.25-87v-1.12l.9-.64L673,936.23l18.73-13.35,37.46-26.7-.65,1.28.26-35.55c.06-11.85.25-23.7.38-35.55l.42-35.55Z" style="fill:#48eeff"/><polygon points="792.68 755.25 793.15 800.67 793.52 846.09 793.89 891.51 794.13 936.93 794.14 937.67 793.53 938.11 719.51 992.17 720.31 990.62 720.51 1034.2 720.62 1077.78 720.8 1164.94 720.21 1163.36 804.27 1259.91 802.4 1259.06 931.57 1259.23 996.15 1259.4 1060.73 1259.69 1189.9 1260.37 1254.48 1260.91 1286.78 1261.18 1319.07 1261.54 1286.78 1261.9 1254.48 1262.17 1189.9 1262.7 1060.73 1263.39 996.15 1263.68 931.57 1263.85 802.4 1264.02 801.28 1264.02 800.53 1263.16 716.57 1166.53 715.97 1165.84 715.98 1164.94 716.16 1077.78 716.27 1034.2 716.48 990.62 716.48 989.63 717.27 989.07 791.83 935.75 791.22 936.93 791.46 891.51 791.83 846.09 792.21 800.67 792.68 755.25" style="fill:#48eeff"/><path d="M860.59,1172.05c20.39-.43,40.78-.66,61.17-1s40.78-.49,61.17-.7l61.17-.46,61.17-.27,61.18-.09,61.17,0,61.17.2,61.17.38h.83l.54.61,24.16,27.18,24.1,27.24,24,27.32q12,13.64,23.94,27.38-12.46-13.25-24.85-26.56l-24.78-26.62-24.7-26.7-24.63-26.76,1.38.61-61.17.38-61.17.2-61.17,0-61.18-.09-61.17-.27-61.17-.45c-20.39-.22-40.78-.38-61.17-.71S881,1172.48,860.59,1172.05Z" style="fill:#48eeff"/><path d="M375.15,1268.16l-8.58.39-8.59.33-17.16.55-17.16.43-17.16.31,1.3-.48q-18,15.74-36.12,31.27c-6.05,5.18-12.1,10.36-18.2,15.47s-12.15,10.29-18.28,15.38l-18.38,15.25-18.5,15.12c-12.38,10-24.82,20-37.45,29.7,11.63-10.9,23.46-21.57,35.36-32.16l17.91-15.81,18-15.68c6-5.22,12.09-10.37,18.13-15.55s12.12-10.33,18.21-15.46q18.24-15.43,36.7-30.59l.59-.49h.71l17.16.31,17.16.43,17.16.54,8.59.33Z" style="fill:#48eeff"/><path d="M437.58,1273.39c1,13.1,1.58,26.21,1.95,39.31.23,6.55.28,13.1.42,19.65l.13,19.66-.13,19.65c-.14,6.55-.18,13.11-.41,19.66-.37,13.1-.91,26.2-2,39.31-1-13.11-1.58-26.21-1.95-39.31-.23-6.55-.27-13.11-.41-19.66l-.13-19.65.13-19.66c.14-6.55.19-13.1.42-19.65C436,1299.6,436.55,1286.49,437.58,1273.39Z" style="fill:#48eeff"/><path d="M599.07,1187.09c1,20,1.58,40,1.95,60,.23,10,.28,20,.41,30l.14,30-.13,30c-.14,10-.18,20-.42,30-.36,20-.91,40-1.95,60-1-20-1.58-40-2-60-.23-10-.28-20-.41-30l-.14-30,.14-30c.14-10,.19-20,.42-30C597.5,1227.07,598,1207.08,599.07,1187.09Z" style="fill:#48eeff"/><path d="M96.15,1323.23a25.5,25.5,0,1,0,25.5,25.5A25.5,25.5,0,0,0,96.15,1323.23Zm0,47a21.5,21.5,0,1,1,21.49-21.49A21.49,21.49,0,0,1,96.15,1370.22Z" style="fill:#1e3659"/><path d="M96.15,1269.37a19.34,19.34,0,1,0,19.33,19.34A19.33,19.33,0,0,0,96.15,1269.37Zm0,35.63a16.3,16.3,0,1,1,16.3-16.29A16.29,16.29,0,0,1,96.15,1305Z" style="fill:#1e3659"/><path d="M61.33,1243.56a19.34,19.34,0,1,0,19.33,19.34A19.34,19.34,0,0,0,61.33,1243.56Zm0,35.63a16.3,16.3,0,1,1,16.29-16.29A16.29,16.29,0,0,1,61.33,1279.19Z" style="fill:#1e3659"/><path d="M70.65,1077.9a25.5,25.5,0,1,0,25.5,25.5A25.5,25.5,0,0,0,70.65,1077.9Zm0,47a21.5,21.5,0,1,1,21.5-21.5A21.5,21.5,0,0,1,70.65,1124.9Z" style="fill:#1e3659"/><path d="M160.87,1118.93a25.5,25.5,0,1,0,25.49,25.5A25.5,25.5,0,0,0,160.87,1118.93Zm0,47a21.5,21.5,0,1,1,21.49-21.49A21.49,21.49,0,0,1,160.87,1165.92Z" style="fill:#1e3659"/><path d="M1274.44,1275.64a25.5,25.5,0,1,0,25.5,25.49A25.49,25.49,0,0,0,1274.44,1275.64Zm0,47a21.5,21.5,0,1,1,21.5-21.5A21.49,21.49,0,0,1,1274.44,1322.63Z" style="fill:#1e3659"/><path d="M1272.48,1201.23a25.5,25.5,0,1,0,25.5,25.49A25.49,25.49,0,0,0,1272.48,1201.23Zm0,47a21.5,21.5,0,1,1,21.5-21.5A21.49,21.49,0,0,1,1272.48,1248.22Z" style="fill:#1e3659"/><path d="M1145.73,1104.38a25.5,25.5,0,1,0,25.5,25.5A25.5,25.5,0,0,0,1145.73,1104.38Zm0,47a21.49,21.49,0,1,1,21.49-21.49A21.5,21.5,0,0,1,1145.73,1151.37Z" style="fill:#1e3659"/><path d="M636.5,832.24a25.5,25.5,0,1,0,25.5,25.5A25.5,25.5,0,0,0,636.5,832.24Zm0,47A21.5,21.5,0,1,1,658,857.74,21.49,21.49,0,0,1,636.5,879.23Z" style="fill:#1e3659"/><circle cx="603.65" cy="915.51" r="13.08" style="fill:#48eeff"/><circle cx="132.34" cy="1202.23" r="13.08" style="fill:#48eeff"/><circle cx="439.55" cy="1186.99" r="13.08" style="fill:#48eeff"/><circle cx="501.98" cy="1186.99" r="13.08" style="fill:#48eeff"/><circle cx="601.03" cy="1186.99" r="13.08" style="fill:#48eeff"/><circle cx="739.64" cy="1244.2" r="13.08" style="fill:#48eeff"/><circle cx="1081.5" cy="1341.94" r="13.08" style="fill:#48eeff"/><circle cx="1143.78" cy="1341.94" r="13.08" style="fill:#48eeff"/><circle cx="848.51" cy="1173.92" r="13.08" style="fill:#48eeff"/><circle cx="881.61" cy="1131.09" r="13.08" style="fill:#48eeff"/><circle cx="439.55" cy="1226.55" r="13.08" style="fill:#48eeff"/><circle cx="387.41" cy="1269.37" r="13.08" style="fill:#48eeff"/><circle cx="1460.54" cy="1300.26" r="27.3" style="fill:#48eeff"/><circle cx="439.55" cy="1269.37" r="13.08" style="fill:#48eeff"/><circle cx="701.72" cy="848.82" r="13.08" style="fill:#48eeff"/></g><polygon points="278.96 249.08 278.96 201.32 495.01 201.32 529.47 126.98 977.21 127.43 1018.49 178.31 1098.08 178.31 1136.81 225.43 1417.7 225.43 1417.7 515.23 1368.6 515.23 1368.6 627.95 868.25 627.95 831.96 700.59 327.81 700.59 327.81 549.67 278.96 499.51 278.96 249.08" style="opacity:0.44;mix-blend-mode:screen;fill:url(#linear-gradient)"/><rect x="619.82" y="2.98" width="8.1" height="28.35" style="fill:#f9f;mix-blend-mode:soft-light"/><rect x="619.82" y="90.93" width="8.1" height="28.35" style="fill:#f9f;mix-blend-mode:soft-light"/><rect x="667.91" y="2.98" width="8.1" height="28.35" style="fill:#f9f;mix-blend-mode:soft-light"/><rect x="667.91" y="90.93" width="8.1" height="28.35" style="fill:#f9f;mix-blend-mode:soft-light"/><rect x="718.32" y="2.98" width="8.1" height="28.35" style="fill:#f9f;mix-blend-mode:soft-light"/><rect x="718.32" y="90.93" width="8.1" height="28.35" style="fill:#f9f;mix-blend-mode:soft-light"/><rect x="742.75" y="2.98" width="8.1" height="28.35" style="fill:#f9f;mix-blend-mode:soft-light"/><rect x="742.75" y="90.93" width="8.1" height="28.35" style="fill:#f9f;mix-blend-mode:soft-light"/><rect x="767.43" y="2.98" width="8.1" height="28.35" style="fill:#f9f;mix-blend-mode:soft-light"/><rect x="767.43" y="90.93" width="8.1" height="28.35" style="fill:#f9f;mix-blend-mode:soft-light"/><rect x="792.12" y="2.98" width="8.1" height="28.35" style="fill:#f9f;mix-blend-mode:soft-light"/><rect x="792.12" y="90.93" width="8.1" height="28.35" style="fill:#f9f;mix-blend-mode:soft-light"/><rect x="619.82" y="2.98" width="8.1" height="28.35" style="fill:#f9f;mix-blend-mode:soft-light"/><rect x="619.82" y="90.93" width="8.1" height="28.35" style="fill:#f9f;mix-blend-mode:soft-light"/><rect x="667.91" y="2.98" width="8.1" height="28.35" style="fill:#f9f;mix-blend-mode:soft-light"/><rect x="667.91" y="90.93" width="8.1" height="28.35" style="fill:#f9f;mix-blend-mode:soft-light"/><rect x="718.32" y="2.98" width="8.1" height="28.35" style="fill:#f9f;mix-blend-mode:soft-light"/><rect x="718.32" y="90.93" width="8.1" height="28.35" style="fill:#f9f;mix-blend-mode:soft-light"/><rect x="742.75" y="2.98" width="8.1" height="28.35" style="fill:#f9f;mix-blend-mode:soft-light"/><rect x="742.75" y="90.93" width="8.1" height="28.35" style="fill:#f9f;mix-blend-mode:soft-light"/><rect x="767.43" y="2.98" width="8.1" height="28.35" style="fill:#f9f;mix-blend-mode:soft-light"/><rect x="767.43" y="90.93" width="8.1" height="28.35" style="fill:#f9f;mix-blend-mode:soft-light"/><rect x="792.12" y="2.98" width="8.1" height="28.35" style="fill:#f9f;mix-blend-mode:soft-light"/><rect x="792.12" y="90.93" width="8.1" height="28.35" style="fill:#f9f;mix-blend-mode:soft-light"/><rect x="619.82" y="2.98" width="8.1" height="28.35" style="fill:#f9f;mix-blend-mode:soft-light"/><rect x="619.82" y="90.93" width="8.1" height="28.35" style="fill:#f9f;mix-blend-mode:soft-light"/><rect x="667.91" y="2.98" width="8.1" height="28.35" style="fill:#f9f;mix-blend-mode:soft-light"/><rect x="667.91" y="90.93" width="8.1" height="28.35" style="fill:#f9f;mix-blend-mode:soft-light"/><rect x="718.32" y="2.98" width="8.1" height="28.35" style="fill:#f9f;mix-blend-mode:soft-light"/><rect x="718.32" y="90.93" width="8.1" height="28.35" style="fill:#f9f;mix-blend-mode:soft-light"/><rect x="742.75" y="2.98" width="8.1" height="28.35" style="fill:#f9f;mix-blend-mode:soft-light"/><rect x="742.75" y="90.93" width="8.1" height="28.35" style="fill:#f9f;mix-blend-mode:soft-light"/><rect x="767.43" y="2.98" width="8.1" height="28.35" style="fill:#f9f;mix-blend-mode:soft-light"/><rect x="767.43" y="90.93" width="8.1" height="28.35" style="fill:#f9f;mix-blend-mode:soft-light"/><g style="mix-blend-mode:soft-light"><path d="M697.64,4.91c.83,9.34,1.27,18.68,1.56,28,.18,4.66.22,9.33.33,14l.11,14-.1,14c-.11,4.67-.15,9.34-.33,14-.3,9.33-.73,18.67-1.57,28-.83-9.34-1.26-18.68-1.56-28-.18-4.67-.22-9.34-.33-14l-.1-14,.11-14c.1-4.67.15-9.34.33-14C696.38,23.59,696.82,14.25,697.64,4.91Z" style="fill:#1e3659"/></g><rect x="693.98" y="2.98" width="8.1" height="28.35" style="fill:#f9f;mix-blend-mode:soft-light"/><rect x="693.98" y="90.93" width="8.1" height="28.35" style="fill:#f9f;mix-blend-mode:soft-light"/><rect x="693.98" y="2.98" width="8.1" height="28.35" style="fill:#f9f;mix-blend-mode:soft-light"/><rect x="693.98" y="90.93" width="8.1" height="28.35" style="fill:#f9f;mix-blend-mode:soft-light"/><rect x="693.98" y="2.98" width="8.1" height="28.35" style="fill:#f9f;mix-blend-mode:soft-light"/><rect x="693.98" y="90.93" width="8.1" height="28.35" style="fill:#f9f;mix-blend-mode:soft-light"/><g style="mix-blend-mode:soft-light"><path d="M647.89,4.91c.83,9.34,1.26,18.68,1.55,28,.19,4.66.23,9.33.34,14l.11,14-.11,14c-.11,4.67-.14,9.34-.33,14-.29,9.33-.73,18.67-1.56,28-.83-9.34-1.27-18.68-1.56-28-.19-4.67-.22-9.34-.34-14l-.1-14,.11-14c.11-4.67.15-9.34.33-14C646.63,23.59,647.06,14.25,647.89,4.91Z" style="fill:#1e3659"/></g><rect x="644.22" y="2.98" width="8.1" height="28.35" style="fill:#f9f;mix-blend-mode:soft-light"/><rect x="644.22" y="90.93" width="8.1" height="28.35" style="fill:#f9f;mix-blend-mode:soft-light"/><rect x="644.22" y="2.98" width="8.1" height="28.35" style="fill:#f9f;mix-blend-mode:soft-light"/><rect x="644.22" y="90.93" width="8.1" height="28.35" style="fill:#f9f;mix-blend-mode:soft-light"/><rect x="644.22" y="2.98" width="8.1" height="28.35" style="fill:#f9f;mix-blend-mode:soft-light"/><rect x="644.22" y="90.93" width="8.1" height="28.35" style="fill:#f9f;mix-blend-mode:soft-light"/><rect x="792.12" y="2.98" width="8.1" height="28.35" style="fill:#f9f;mix-blend-mode:soft-light"/><rect x="792.12" y="90.93" width="8.1" height="28.35" style="fill:#f9f;mix-blend-mode:soft-light"/><g style="mix-blend-mode:screen"><image width="520" height="75" transform="translate(492.93 89.18)" xlink:href="play%20to%20earn%20platform12.png" style="mix-blend-mode:screen"/><polygon points="529.92 127.16 753.79 126.09 976.11 127.16 753.91 127.81 529.92 127.16" style="fill:#48eeff"/></g><g style="mix-blend-mode:screen"><image width="578" height="75" transform="translate(290.93 662.18)" xlink:href="play%20to%20earn%20platform13.png" style="mix-blend-mode:screen"/><polygon points="327.52 699.99 580.78 698.62 832.28 699.99 580.91 700.82 327.52 699.99" style="fill:#48eeff"/></g><g style="mix-blend-mode:screen"><image width="76" height="368" transform="translate(240.93 166.18)" xlink:href="play%20to%20earn%20platform14.png" style="mix-blend-mode:screen"/><polygon points="279.23 497.59 277.86 349.58 279.23 202.59 280.06 349.5 279.23 497.59" style="fill:#48eeff"/></g><g style="mix-blend-mode:screen"><image width="75" height="363" transform="translate(1379.93 189.18)" xlink:href="play%20to%20earn%20platform15.png" style="mix-blend-mode:screen"/><polygon points="1417.97 515.23 1416.6 369.72 1417.97 225.23 1418.8 369.65 1417.97 515.23" style="fill:#48eeff"/></g></g></g></g></svg>