<svg xmlns="http://www.w3.org/2000/svg" xmlns:xlink="http://www.w3.org/1999/xlink" viewBox="0 0 548 107.71"><defs><linearGradient id="linear-gradient" x1="10.69" y1="51.66" x2="525.58" y2="51.66" gradientUnits="userSpaceOnUse"><stop offset="0" stop-color="#ba00ff"/><stop offset="1" stop-color="#0b61aa"/></linearGradient><clipPath id="clip-path"><path d="M458.94,61.21h57.48a9.16,9.16,0,0,0,9.16-9.16v-29a9.16,9.16,0,0,0-9.16-9.16H19.85a9.16,9.16,0,0,0-9.16,9.16V80.27a9.16,9.16,0,0,0,9.16,9.16H421.19A9.12,9.12,0,0,0,427.4,87l25.33-23.36A9.16,9.16,0,0,1,458.94,61.21Z" style="fill:url(#linear-gradient)"/></clipPath><linearGradient id="linear-gradient-3" x1="19.37" y1="51.66" x2="516.9" y2="51.66" xlink:href="#linear-gradient"/><linearGradient id="linear-gradient-4" x1="8.29" y1="16.99" x2="19.45" y2="16.99" xlink:href="#linear-gradient"/></defs><title>purple button</title>
    <g style="isolation:isolate"><g id="Layer_9" data-name="Layer 9"><path d="M458.94,61.21h57.48a9.16,9.16,0,0,0,9.16-9.16v-29a9.16,9.16,0,0,0-9.16-9.16H19.85a9.16,9.16,0,0,0-9.16,9.16V80.27a9.16,9.16,0,0,0,9.16,9.16H421.19A9.12,9.12,0,0,0,427.4,87l25.33-23.36A9.16,9.16,0,0,1,458.94,61.21Z" style="fill:url(#linear-gradient)"/><g style="clip-path:url(#clip-path)"><g style="opacity:0.6000000000000001;mix-blend-mode:overlay"><image width="650" height="193" transform="translate(476.31 25.82)" xlink:href="purple%20button1.png"/></g><g style="mix-blend-mode:lighten"><polygon points="19.37 80.75 19.37 22.57 516.9 22.57 516.9 52.53 451.97 52.53 421.38 80.75 19.37 80.75" style="fill:url(#linear-gradient-3)"/></g><polygon points="10.69 89.43 19.37 80.75 421.39 80.75 424.86 89.43 10.69 89.43" style="fill:#0c597a;opacity:0.51;mix-blend-mode:multiply"/><polygon points="10.69 13.89 19.37 22.57 19.37 80.75 10.69 89.43 10.69 13.89" style="fill:#2d9e2d;opacity:0.4;mix-blend-mode:multiply"/><polygon points="516.9 52.53 525.58 61.21 455.36 61.21 451.97 52.53 516.9 52.53" style="fill:#0c597a;opacity:0.51;mix-blend-mode:multiply"/><polygon points="421.39 80.75 451.97 52.53 455.36 61.21 424.86 89.43 421.39 80.75" style="fill:#0c597a;opacity:0.51;mix-blend-mode:multiply"/><polygon points="525.58 61.21 516.9 52.53 516.9 22.57 525.58 13.89 525.58 61.21" style="fill:#0c597a;opacity:0.51;mix-blend-mode:multiply"/><polygon points="10.69 13.89 19.37 22.57 516.9 22.57 525.58 13.89 10.69 13.89" style="fill:#48fff6;fill-opacity:0.21"/><polygon points="8.29 19.3 19.37 22.57 19.45 11.4 8.29 19.3" style="mix-blend-mode:lighten;fill:url(#linear-gradient-4)"/><polygon points="7.53 81.67 19.37 80.75 18.5 92.09 7.53 81.67" style="fill:#0c597a;opacity:0.51;mix-blend-mode:multiply"/><polygon points="517.41 11.9 516.9 22.57 528.89 21.26 517.41 11.9" style="fill:#0b76bc"/><polygon points="417.89 93.13 421.39 80.75 432.01 86.25 417.89 93.13" style="fill:#0c597a;opacity:0.27;mix-blend-mode:multiply"/><path d="M527.48,53.74c-.44-.3-10.58-1.21-10.58-1.21l1.27,11.7,7.32-3.62Z" style="fill:#145cb2"/><polygon points="459.46 61.72 451.98 52.6 450.59 69.92 459.46 61.72" style="fill:#0c597a;opacity:0.27;mix-blend-mode:multiply"/></g><g style="mix-blend-mode:overlay"><image width="575" height="78" transform="translate(-21.69 -22.18)" xlink:href="purple%20button2.png"/></g></g></g></svg>