<svg xmlns="http://www.w3.org/2000/svg" xmlns:xlink="http://www.w3.org/1999/xlink" viewBox="0 0 196.15 186.34"><defs><linearGradient id="linear-gradient" x1="-775.26" y1="-6457.91" x2="-775.26" y2="678.85" gradientUnits="userSpaceOnUse"><stop offset="0.05" stop-color="#7c205f"/><stop offset="0.07" stop-color="#721f5a"/><stop offset="0.17" stop-color="#541b4c"/><stop offset="0.27" stop-color="#3b1840"/><stop offset="0.39" stop-color="#281537"/><stop offset="0.52" stop-color="#1a1331"/><stop offset="0.69" stop-color="#12122d"/><stop offset="1" stop-color="#10122c"/></linearGradient><clipPath id="clip-path"><rect x="231.97" y="-545.61" width="1921.87" height="1113.31" style="fill:none"/></clipPath><linearGradient id="linear-gradient-2" x1="1193.58" y1="-6464.5" x2="1193.58" y2="672.26" xlink:href="#linear-gradient"/><linearGradient id="linear-gradient-3" x1="11132.14" y1="2819.99" x2="11296.06" y2="2819.99" gradientTransform="translate(11312.16 2913.15) rotate(180)" gradientUnits="userSpaceOnUse"><stop offset="0" stop-color="#9b9b9b"/><stop offset="0.1" stop-color="#7e7e7e"/><stop offset="0.21" stop-color="#656665"/><stop offset="0.33" stop-color="#525352"/><stop offset="0.48" stop-color="#444544"/><stop offset="0.66" stop-color="#3c3d3c"/><stop offset="0.99" stop-color="#3a3b3a"/></linearGradient><clipPath id="clip-path-2"><rect x="-1736.87" y="-1383.36" width="1921.87" height="844.19" style="fill:none"/></clipPath><clipPath id="clip-path-3"><rect x="-1735.83" y="-6141.69" width="1921.13" height="6715.96" style="fill:url(#linear-gradient)"/></clipPath></defs><title>social media button</title><g style="isolation:isolate"><g id="Layer_1" data-name="Layer 1"><g style="clip-path:url(#clip-path)"><rect x="233.01" y="-6148.27" width="1921.13" height="6715.96" style="fill:url(#linear-gradient-2)"/></g><polygon points="16.1 40.07 16.1 175.13 155.92 175.13 180.02 145.61 180.02 11.21 39.65 11.21 16.1 40.07" style="opacity:0.44;mix-blend-mode:screen;fill:url(#linear-gradient-3)"/><g style="mix-blend-mode:screen"><image width="306" height="864" transform="translate(143.43 -24.98) scale(0.24)" xlink:href="social%20media%20button1.png" style="mix-blend-mode:screen"/><polygon points="180.28 146.33 179.53 78.53 180.28 11.21 180.72 78.5 180.28 146.33" style="fill:#76cfe6"/></g><g style="mix-blend-mode:screen"><image width="884" height="306" transform="translate(-20.49 138.46) scale(0.24)" xlink:href="social%20media%20button2.png" style="mix-blend-mode:screen"/><polygon points="155.46 174.98 85.29 175.75 15.62 174.98 85.26 174.51 155.46 174.98" style="fill:#76cfe6"/></g><g style="mix-blend-mode:screen"><image width="884" height="306" transform="translate(3.99 -25.46) scale(0.24)" xlink:href="social%20media%20button3.png" style="mix-blend-mode:screen"/><polygon points="180.02 11.06 109.85 11.83 40.17 11.06 109.82 10.59 180.02 11.06" style="fill:#76cfe6"/></g><g style="mix-blend-mode:screen"><image width="306" height="864" transform="translate(-21.21 3.82) scale(0.24)" xlink:href="social%20media%20button4.png" style="mix-blend-mode:screen"/><polygon points="15.76 175.13 15.02 107.33 15.76 40.01 16.21 107.3 15.76 175.13" style="fill:#76cfe6"/></g><rect x="11.15" y="102.59" width="4.28" height="13.27" style="fill:#76cfe6"/><g style="clip-path:url(#clip-path-2)"><rect x="-1735.83" y="-6141.69" width="1921.13" height="6715.96" style="fill:url(#linear-gradient)"/><g style="clip-path:url(#clip-path-3)"><image width="910" height="512" transform="matrix(0, -3.81, -3.81, 0, 198.37, 778.49)" xlink:href="social%20media%20button5.png" style="opacity:0.07;mix-blend-mode:screen"/></g></g><rect x="180.73" y="78.06" width="4.28" height="13.27" style="fill:#76cfe6"/></g></g></svg>